<?xml version="1.0" encoding="UTF-8"?>
<!DOCTYPE svg PUBLIC "-//W3C//DTD SVG 1.1//EN" "http://www.w3.org/Graphics/SVG/1.1/DTD/svg11.dtd">
<svg xmlns="http://www.w3.org/2000/svg" xml:space="preserve" width="175.754mm" height="122.487mm" version="1.1" style="shape-rendering:geometricPrecision; text-rendering:geometricPrecision; image-rendering:optimizeQuality; fill-rule:evenodd; clip-rule:evenodd"
viewBox="0 0 175.7276 122.469"
 xmlns:xlink="http://www.w3.org/1999/xlink"
 xmlns:xodm="http://www.corel.com/coreldraw/odm/2003">
 <defs>
  <style type="text/css">
   <![CDATA[
    .fil1 {fill:#E41D2C}
    .fil0 {fill:#1264AD}
   ]]>
  </style>
 </defs>
 <g id="Layer_x0020_1">
  <metadata />
  <g id="_1067825216">
   <path class="fil0" d="M-0 61.2366c0,33.8102 39.3932,61.2324 87.9241,61.2324 48.5311,-0.1628 87.8493,-27.6015 87.8034,-61.4118 0,-33.7978 -39.389,-61.0572 -87.9243,-61.0572 -48.5267,0 -87.8032,27.4221 -87.8032,61.2366zm160.8356 -0.1794l0 0c0,26.2912 -32.6086,47.6172 -72.9115,47.6172 -40.3194,0 -72.9655,-21.2217 -73.0239,-47.4378 0,-26.0995 32.6504,-47.4296 72.903,-47.4296 40.3071,-0.1752 72.9699,21.1508 73.0324,47.2502z"/>
   <path class="fil1" d="M114.0236 46.8663c-4.1391,-2.5286 -9.48,-3.7344 -14.483,-2.8207 -1.4437,0.2921 -2.7079,0.7469 -3.9722,1.498 -1.5481,0.8512 -2.7581,2.0612 -3.8013,3.3839 -0.7385,1.1474 -1.21,2.3576 -1.4896,3.6803 -0.4547,1.9611 -0.3504,3.7427 0.121,5.8165 1.3103,5.3407 7.0643,6.4923 11.4913,8.4494 0.7552,0.2796 1.548,0.751 1.9027,1.6023 0.4547,0.9263 0.4005,2.0779 -0.4589,2.829 -0.6301,0.5674 -1.6774,0.7469 -2.4242,0.9096 -3.6219,0.2963 -7.3605,-1.21 -10.4565,-2.9834l0.0459 9.3716c1.6189,0.8554 3.0042,1.1474 4.6064,1.6023 6.3298,2.0779 14.0323,1.5063 18.401,-4.3103 2.1781,-2.9292 2.7081,-6.6636 1.4897,-10.0517 -0.6802,-1.7817 -1.7274,-3.2838 -3.3881,-4.3145 -1.3853,-1.043 -2.7081,-1.6189 -4.1976,-2.3574 -2.1906,-0.9222 -4.8235,-0.9222 -6.3883,-2.8207 -0.3964,-0.4589 -0.3964,-1.331 -0.2171,-1.9611 0.2796,-0.7385 0.5758,-1.0306 1.2644,-1.3227 1.4895,-0.5758 2.9918,-0.4589 4.5356,-0.1627 2.5868,0.3421 5.1822,1.7774 7.5355,2.8123l-0.1168 -8.85zm-28.5695 0l0 0c-4.1517,-2.5286 -9.4383,-3.576 -14.5038,-2.8207 -1.3687,0.2921 -2.6913,0.8679 -3.9556,1.6148 -1.5648,0.7344 -2.7706,1.9444 -3.8011,3.3881 -0.747,1.0264 -1.206,2.2366 -1.5023,3.5593 -0.3962,1.9611 -0.2796,3.8554 0.1795,5.8165 1.2643,5.3407 7.0225,6.6634 11.4371,8.4494 0.7469,0.2796 1.5604,0.751 1.8984,1.6023 0.4715,0.9263 0.413,2.0779 -0.3963,2.829 -0.6927,0.5674 -1.7274,0.9096 -2.4743,0.9096 -3.6219,0.2963 -7.302,-1.0305 -10.4649,-2.9834 0,0.1711 0.0585,9.4926 0.0585,9.3716 1.6023,0.8554 2.9918,1.1474 4.6065,1.7816 6.313,1.8985 14.0865,1.4438 18.3969,-4.3144 2.1821,-2.9876 2.6995,-6.6678 1.4896,-10.1227 -0.6301,-1.7816 -1.7233,-3.2087 -3.384,-4.4187 -1.3853,-0.8678 -2.7081,-1.6189 -4.2101,-2.2531 -2.1781,-0.8512 -4.7734,-1.0264 -6.3757,-2.925 -0.3965,-0.4589 -0.3965,-1.331 -0.1754,-1.9611 0.238,-0.5758 0.5133,-1.0306 1.21,-1.3227 1.4981,-0.5758 2.9834,-0.2838 4.5482,-0.1627 2.6328,0.3421 5.1614,1.7774 7.5773,2.8123l-0.1586 -8.85zm-26.9672 -10.9823l0 0c-5.0697,-3.0001 -11.4579,-3.8512 -17.2537,-2.0737 -3.7969,1.1474 -7.0808,3.5634 -8.6873,7.2435 -0.8095,1.6607 -1.2057,3.5592 -1.1473,5.5203 0.0625,4.2561 2.9292,7.711 6.4883,9.889 -0.5091,0.6342 -1.2643,0.7552 -1.9528,1.21 -1.089,0.7511 -1.9443,1.6023 -2.7539,2.6496 -1.4438,1.6606 -2.2949,3.5591 -2.5328,5.7997 -0.2336,1.8985 -0.1751,3.9764 0.4549,5.7498 1.7273,4.7735 5.879,8.1741 10.9822,9.0879 2.37,0.4548 4.6065,0.5758 6.9055,0.2922 1.8986,-0.1795 3.5051,-0.4715 5.2993,-1.0473 1.3102,-0.2754 2.4116,-0.7469 3.6801,-1.4813 0,-0.121 -1.2684,-8.6247 -1.2684,-8.6247 -3.4548,0.6301 -7.1351,2.1155 -10.64,0.6301 -2.078,-0.7511 -2.7664,-3.1044 -2.4158,-5.1781 0.2796,-1.9611 1.6022,-3.1044 3.2837,-3.7428 2.754,-1.0305 5.8583,-0.7509 8.8458,-0.7509l-0.1168 -8.1532c-2.2949,0.3421 -4.7692,0.1627 -7.2978,-0.2963 -0.8094,-0.1169 -1.4895,-0.3964 -2.2448,-0.8513 -0.6885,-0.6342 -1.1433,-1.21 -1.4979,-1.7816 -0.747,-1.5022 -0.793,-3.0043 -0.0585,-4.3145 2.5911,-4.6065 8.7456,-2.6496 12.8222,-1.1599l1.1058 -8.6164zm74.6847 16.7237l0 0c-3.1043,0 -5.1824,3.459 -5.0614,9.8388 0.1168,6.3215 2.295,9.768 5.3994,9.768 3.1668,0 5.3575,-3.5592 5.2447,-9.768 -0.121,-6.7302 -2.4158,-9.9556 -5.5828,-9.8388zm0.121 -9.0212l0 0c8.4453,-0.1168 15.4092,4.4313 15.6346,18.5178 0.2296,13.6735 -6.4924,19.148 -14.9462,19.3107 -8.4619,0.121 -15.4091,-4.5898 -15.6429,-18.6764 -0.2378,-13.8111 6.4884,-18.9767 14.9545,-19.152z"/>
  </g>
 </g>
</svg>
